<?xml version="1.0" encoding="utf-8"?>
<!-- Generator: Adobe Illustrator 16.0.0, SVG Export Plug-In . SVG Version: 6.00 Build 0)  -->
<!DOCTYPE svg PUBLIC "-//W3C//DTD SVG 1.1//EN" "http://www.w3.org/Graphics/SVG/1.1/DTD/svg11.dtd">
<svg version="1.1" id="Layer_1" xmlns="http://www.w3.org/2000/svg" xmlns:xlink="http://www.w3.org/1999/xlink" x="0px" y="0px"
	 width="520.006px" height="470px" viewBox="0 0 520.006 470" enable-background="new 0 0 520.006 470" xml:space="preserve">
<g>
	<rect opacity="0.22" fill="#7BC7C0" width="483.24" height="439.692"/>
	<rect x="34.241" y="28.692" opacity="0.81" fill="#494A99" width="485.765" height="441.308"/>
</g>
<rect x="35.698" y="30.205" fill="#344C82" width="485.367" height="24.211"/>
<g>
	<g>
		<path fill="#FFFFFF" d="M497.273,46.445l1.425,1.786l1.415-1.786c-0.427-0.254-0.916-0.398-1.415-0.398
			C498.196,46.047,497.705,46.191,497.273,46.445z"/>
		<path fill="#FFFFFF" d="M495.322,43.991l1.506,1.893c0.557-0.357,1.206-0.556,1.87-0.556c0.661,0,1.313,0.199,1.864,0.556
			l1.508-1.891c-0.988-0.69-2.167-1.067-3.372-1.067C497.488,42.926,496.303,43.303,495.322,43.991z"/>
		<path fill="#FFFFFF" d="M498.698,36.682c-2.656,0-5.159,0.844-7.264,2.426l1.495,1.88c1.67-1.241,3.657-1.905,5.769-1.905
			c2.108,0,4.094,0.664,5.768,1.905l1.488-1.88C503.848,37.525,501.35,36.682,498.698,36.682z"/>
		<path fill="#FFFFFF" d="M493.379,41.556l1.494,1.872c1.111-0.789,2.457-1.223,3.825-1.223c1.367,0,2.706,0.434,3.817,1.223
			l1.497-1.872c-1.545-1.144-3.375-1.753-5.314-1.753C496.754,39.803,494.92,40.412,493.379,41.556z"/>
		<polygon fill="#FFFFFF" points="491.875,48.231 494.878,48.231 493.379,45.628 		"/>
	</g>
	<g>
		<g>
			
				<rect x="475.241" y="36.935" transform="matrix(0.7043 0.7099 -0.7099 0.7043 167.9783 -326.2845)" fill="#FFFFFF" width="0.883" height="3.15"/>
		</g>
		<g>
			<polygon fill="#FFFFFF" points="484.38,39.937 482.153,37.705 482.773,37.083 485.002,39.31 			"/>
		</g>
		<g>
			<path fill="#FFFFFF" d="M479.631,47.19c-2.61,0-4.736-2.125-4.736-4.731c0-2.612,2.126-4.736,4.736-4.736
				c2.605,0,4.733,2.124,4.733,4.736C484.364,45.065,482.236,47.19,479.631,47.19z M479.631,38.608
				c-2.122,0-3.854,1.727-3.854,3.851c0,2.121,1.731,3.846,3.854,3.846c2.121,0,3.846-1.725,3.846-3.846
				C483.477,40.335,481.752,38.608,479.631,38.608z"/>
		</g>
		<g>
			<path fill="#FFFFFF" d="M481.397,44.692c-1.697-1.692-2.061-2.061-2.096-2.233l-0.002-0.022v-0.024v-2.788h0.662v2.696
				c0.396,0.397,1.906,1.907,1.906,1.907L481.397,44.692z"/>
		</g>
	</g>
</g>
<path fill="#FFFFFF" d="M68.401,77.02l-2.969-2.971c0.617-0.777,1.005-1.748,1.005-2.815c0-2.505-2.041-4.543-4.545-4.543
	c-2.505,0-4.541,2.038-4.541,4.543c0,2.504,2.036,4.542,4.541,4.542c1.067,0,2.04-0.386,2.817-1.004l2.969,2.971L68.401,77.02z
	 M58.374,71.234c0-1.942,1.576-3.521,3.518-3.521c1.942,0,3.522,1.578,3.522,3.521c0,1.942-1.581,3.522-3.522,3.522
	C59.95,74.756,58.374,73.176,58.374,71.234z"/>
<g>
	<rect x="53.925" y="88.562" fill="#FFFFFF" width="370.056" height="0.934"/>
</g>
<g>
	<path fill-rule="evenodd" clip-rule="evenodd" fill="#90939B" d="M152.499,143.067c-0.104,0.411-0.147,0.82,0.214,1.619
		c0.145,0.339,0.583,0.585,0.921,0.652c0.07,0.099,0.234,0.194,0.29,0.171c0.043,0,0.148,0.023,0.293,0
		c0,0.023,0.021,0.073,0.046,0.096c0.07,0.101,0.093,0.191,0.188,0.272c0.125,0.093,0.174,0.217,0.438,0.287
		c0.151,0.052,0.22,0.099,0.27,0.122c-0.026,0.073-0.049,0.142-0.049,0.267c-0.026,0.605,0.342,0.553,0.826,1.086
		c0.145,0.142,0.388,1.185,0.021,1.793c-0.166,0.266,0.562,0.119,1.24-0.385c0.681-0.51,0.75-1.237,1.165-1.573
		c0.417-0.316,0.583-0.681,0.333-0.947c-0.234-0.292-0.866-0.339-1.303-0.893c-0.27-0.345-1.092-0.318-1.434,0.047
		c-0.186,0.197-0.429,0.263-0.574,0.388c-0.079-0.029-0.145-0.075-0.194-0.098c-0.125-0.07-0.707,0.023-0.438-0.29
		c0.166-0.197-0.049-0.293-0.243-0.313h0.023c0.22-0.241-0.119-0.394-0.313-0.49c-0.055-0.02-0.145,0.096-0.368,0.148
		c-0.119-0.076-0.388-0.241-0.29-0.629c0.055-0.223,0.096-0.632,0.365-0.583c0.264,0.073,0.339-0.15,0.701-0.049
		c0.368,0.093,0.438,0,0.389,0.316c-0.076,0.316-0.146,0.605,0.069,0.704c0.414,0.165,0.394-0.388,0.368-0.611
		c-0.029-0.214,0.435-0.51,0.628-0.724c0.218-0.217,0.339-0.921,0.672-0.942c0.368-0.026,0.971-0.365,0.591-0.799
		c-0.466-0.484-0.796-0.243-1.069,0.023c-0.264,0.267-0.628,0.51-0.698,0.049c-0.078-0.458,0.31-0.918-0.099-1.04
		c-0.24-0.072-1.095,0.07-1.579,0.313c-0.313,0.145-0.75,0.412-1.333,1.162C152.275,142.551,152.539,142.823,152.499,143.067
		 M159.498,144.758c0.264,0.336,0.504,0.415,0.603,0.922c0.096,0.507,0.145,0.988,0.145,0.988s0.29-1.159,0.194-1.695
		c-0.069-0.528-0.284-2.002-0.678-1.524C159.35,143.91,159.226,144.417,159.498,144.758 M155.865,140.105
		c2.807,0,5.087,2.277,5.087,5.091c0,2.81-2.28,5.087-5.087,5.087c-2.813,0-5.093-2.277-5.093-5.087
		C150.772,142.383,153.052,140.105,155.865,140.105"/>
</g>
<g>
	<path fill="#C2CEEB" d="M504.013,84.273c0.962,0,1.741,0.776,1.741,1.741c0,0.959-0.779,1.741-1.741,1.741
		s-1.741-0.782-1.741-1.741C502.271,85.049,503.051,84.273,504.013,84.273z"/>
	<path fill="#C2CEEB" d="M504.013,78.635c0.962,0,1.741,0.776,1.741,1.741c0,0.959-0.779,1.741-1.741,1.741
		s-1.741-0.782-1.741-1.741C502.271,79.412,503.051,78.635,504.013,78.635z"/>
	<circle fill="#C2CEEB" cx="504.013" cy="74.736" r="1.741"/>
</g>
<rect x="101.542" y="120.351" fill="#F2F2F2" width="82.882" height="10.629"/>
<rect x="56.843" y="172.637" fill="#F2F2F2" width="287.958" height="6.179"/>
<rect x="56.843" y="188.83" fill="#F2F2F2" width="131.211" height="6.18"/>
<rect x="101.542" y="142.847" fill="#D2DDF2" width="44.076" height="4.696"/>
<path fill="#C2CEEB" d="M398.371,215.572h-10.488c-0.73,0-1.325,0.595-1.325,1.326v12.566c0,0.38,0.215,0.716,0.561,0.875
	c0.131,0.061,0.27,0.09,0.406,0.09c0.224,0,0.444-0.08,0.624-0.234l4.979-4.268l4.979,4.268c0,0,0,0,0,0
	c0.29,0.248,0.685,0.302,1.03,0.143c0.347-0.159,0.562-0.495,0.562-0.875v-12.566C399.697,216.167,399.103,215.572,398.371,215.572z
	 M398.915,229.463c0,0.104-0.074,0.15-0.105,0.165c-0.032,0.014-0.115,0.042-0.195-0.027l0,0l-5.232-4.485
	c-0.146-0.126-0.363-0.126-0.509,0l-5.233,4.485c-0.08,0.068-0.162,0.042-0.194,0.027c-0.031-0.015-0.105-0.06-0.105-0.165v-12.566
	c0-0.3,0.244-0.543,0.543-0.543h10.488c0.3,0,0.544,0.244,0.544,0.543V229.463z"/>
<g>
	<g>
		<path fill="#7BC7BE" d="M69.372,446.6c-0.262,0.817-0.774,1.553-1.482,2.127l-5.567,4.5c-0.07,0.059-0.156,0.09-0.246,0.09
			c-0.086,0-0.172-0.031-0.246-0.09l-5.563-4.5c-0.708-0.574-1.224-1.31-1.481-2.127c-0.559-1.747-0.059-3.687,1.274-4.938
			c1.235-1.157,2.94-1.47,4.566-0.833c0.629,0.247,1.138,0.81,1.45,1.232c0.317-0.423,0.825-0.985,1.455-1.232
			c1.622-0.637,3.331-0.324,4.566,0.833C69.43,442.913,69.93,444.853,69.372,446.6z"/>
		<path fill="#B1BACC" d="M93.997,444.708c-0.586-2.516-2.686-4.523-5.224-4.997c-2.229-0.418-4.417,0.248-6.003,1.822
			c-1.586,1.574-2.268,3.756-1.868,5.985c0.471,2.636,2.559,4.772,5.195,5.317c1.33,0.274,2.688,0.149,3.927-0.361
			c0.141-0.058,0.355-0.112,0.584-0.043l1.873,0.574c0.098,0.029,0.196,0.044,0.294,0.044c0.24,0,0.474-0.087,0.66-0.254
			c0.262-0.233,0.379-0.579,0.314-0.924l-0.382-2.031c-0.042-0.219,0.026-0.417,0.091-0.544l0,0
			C94.179,447.876,94.365,446.289,93.997,444.708z M92.761,448.943L92.761,448.943c-0.171,0.338-0.227,0.698-0.162,1.042
			l0.382,2.031c0.02,0.105-0.041,0.173-0.067,0.197c-0.026,0.023-0.098,0.077-0.204,0.045l-1.873-0.574
			c-0.147-0.046-0.299-0.068-0.454-0.068c-0.218,0-0.44,0.046-0.658,0.135c-1.094,0.452-2.293,0.563-3.471,0.319
			c-2.326-0.481-4.168-2.365-4.584-4.689c-0.353-1.973,0.248-3.902,1.649-5.293c1.402-1.391,3.338-1.978,5.309-1.608
			c2.238,0.418,4.089,2.188,4.606,4.406C93.562,446.285,93.397,447.688,92.761,448.943z"/>
		<path fill="#B1BACC" d="M121.002,440.497c-0.066-0.133-0.202-0.216-0.35-0.216h-14.86c-0.164,0-0.31,0.102-0.367,0.255
			c-0.057,0.154-0.012,0.326,0.112,0.433l5.219,4.468l0.01,7.914c0,0.168,0.108,0.317,0.268,0.371
			c0.041,0.013,0.082,0.02,0.123,0.02c0.121,0,0.238-0.057,0.313-0.156l9.494-12.679
			C121.054,440.788,121.068,440.63,121.002,440.497z M106.85,441.063h12.092l-7.734,3.731L106.85,441.063z M111.539,445.502
			l7.84-3.781l-7.831,10.457L111.539,445.502z"/>
	</g>
</g>
<text transform="matrix(1 0 0 1 54.5591 430.9307)" fill="#A7A9AB" font-family="'WorkSans-Regular'" font-size="9">View all 245 comments</text>
<g>
	<g>
		<path fill="#D1D2D4" d="M261.933,460.774c0,1.125-0.741,1.866-1.917,1.866c-1.175,0-1.942-0.741-1.942-1.866
			c0-1.124,0.767-1.84,1.942-1.84C261.192,458.935,261.933,459.65,261.933,460.774z"/>
		<path fill="#D1D2D4" d="M268.91,460.774c0,1.125-0.741,1.866-1.917,1.866s-1.942-0.741-1.942-1.866c0-1.124,0.767-1.84,1.942-1.84
			S268.91,459.65,268.91,460.774z"/>
		<g>
			<g>
				<path fill="#1276BC" d="M275.887,460.774c0,1.125-0.741,1.866-1.917,1.866s-1.942-0.741-1.942-1.866
					c0-1.124,0.767-1.84,1.942-1.84S275.887,459.65,275.887,460.774z"/>
			</g>
		</g>
		<path fill="#D1D2D4" d="M282.863,460.774c0,1.125-0.741,1.866-1.917,1.866s-1.942-0.741-1.942-1.866
			c0-1.124,0.767-1.84,1.942-1.84S282.863,459.65,282.863,460.774z"/>
		<path fill="#D1D2D4" d="M289.84,460.774c0,1.125-0.74,1.866-1.917,1.866c-1.175,0-1.941-0.741-1.941-1.866
			c0-1.124,0.767-1.84,1.941-1.84C289.1,458.935,289.84,459.65,289.84,460.774z"/>
	</g>
</g>
<g>
	<path fill="#7BC7BE" d="M93.002,136.395c0,5.2-1.779,9.975-4.769,13.762c-4.075,5.161-10.387,8.477-17.471,8.477
		c-7.083,0-13.396-3.316-17.471-8.477c-2.99-3.788-4.769-8.562-4.769-13.762c0-12.284,9.956-22.24,22.239-22.24
		C83.047,114.155,93.002,124.11,93.002,136.395z"/>
</g>
<g>
	<g>
		<path fill="#EABE70" d="M52.687,149.353c-2.69-3.07-4.105-10.21-4.006-10.296c2.155-1.878,2.204-1.208,3.12-2.261
			c2.546-2.928,6.667-7.061,11.369-9.45c0,0,3.672-1.93,7.594-0.996c0.846,0.201,3.312,1.057,3.312,1.057
			c1.616,0.516,2.937,1.693,3.632,3.24l1.147,2.549l1.77,1.609c0.599,0.544,0.857,1.369,0.677,2.157l-0.859,3.758
			c-0.486,2.126-2.433,3.594-4.611,3.476c0,0-1.815-0.013-4.043-0.307c-0.675-0.089-1.316,0.294-1.576,0.924
			c-1.946,4.707-4.772,8.916-7.512,12.312c0,0-3.662-1.833-5.361-3.002C55.968,153.178,54.812,151.889,52.687,149.353z"/>
		<path fill="#393F92" d="M70.763,119.979v6.602c0,0.902-0.58,1.702-1.437,1.983l-4.106,1.348c-1.178,0.386-2.322-0.666-2.061-1.877
			c1.199-5.547,4.754-7.888,6.546-8.737C70.199,119.063,70.763,119.433,70.763,119.979z"/>
		<path fill="#4C404F" d="M73.86,134.939c0.826,0,1.501-0.669,1.501-1.494c0-0.825-0.661-1.494-1.487-1.494H73.86
			c-0.826,0-1.494,0.669-1.494,1.494C72.366,134.271,73.034,134.939,73.86,134.939z"/>
		<path fill="#393F92" d="M79.072,136.371c0-0.846,0.648-1.517,1.477-1.634l0.075,0.069c0.598,0.544,0.857,1.369,0.677,2.157
			l-0.236,1.033c-0.095,0.016-0.181,0.056-0.281,0.056C79.839,138.052,79.072,137.299,79.072,136.371z"/>
	</g>
</g>
<g>
	<g>
		<circle fill="#E28DA5" cx="408.728" cy="133.175" r="18.096"/>
		<rect x="398.145" y="157.979" fill="#B1BACC" width="21.167" height="3.468"/>
		<circle fill="#4470B6" cx="422.639" cy="118.995" r="7.654"/>
		<path fill="#FFFFFF" d="M423.327,121.745c0,0.379-0.309,0.688-0.688,0.688l0,0c-0.379,0-0.688-0.309-0.688-0.688v-5.501
			c0-0.379,0.309-0.688,0.688-0.688l0,0c0.38,0,0.688,0.309,0.688,0.688V121.745z"/>
		<path fill="#FFFFFF" d="M419.889,119.683c-0.379,0-0.688-0.309-0.688-0.688l0,0c0-0.379,0.309-0.688,0.688-0.688h5.501
			c0.379,0,0.688,0.309,0.688,0.688l0,0c0,0.379-0.309,0.688-0.688,0.688H419.889z"/>
	</g>
	<g>
		<circle fill="#E28DA5" cx="462.074" cy="133.175" r="18.097"/>
		<circle fill="none" stroke="#4470B6" stroke-width="0.5" stroke-miterlimit="10" cx="462.074" cy="133.175" r="19.851"/>
		<rect x="451.49" y="157.979" fill="#B1BACC" width="21.167" height="3.468"/>
		<circle fill="#FFFFFF" cx="475.321" cy="146.716" r="8.914"/>
		<circle fill="#B1BACC" cx="475.321" cy="146.716" r="7.559"/>
	</g>
</g>
<rect x="57.352" y="208.743" opacity="0.22" fill="#7BC7BE" width="352.597" height="139.419"/>
<g>
	<circle fill="#4D75B9" cx="169.922" cy="145.344" r="5.278"/>
	<g>
		<path fill="#FFFFFF" d="M168.195,144.732h-0.824c-0.118,0-0.212,0.095-0.212,0.211v2.443c0,0.118,0.095,0.211,0.212,0.211h0.824
			c0.115,0,0.21-0.094,0.21-0.211v-2.443C168.405,144.828,168.31,144.732,168.195,144.732z"/>
		<path fill="#FFFFFF" d="M171.872,144.053c-0.488,0-1.157,0-1.157,0s0-0.975,0-1.178c0-0.204-0.226-0.578-0.407-0.578
			s-0.352,0-0.431,0c-0.078,0-0.18,0.159-0.18,0.419c0,0.261,0,0.566,0,0.714c0,0.147-0.215,0.566-0.374,0.781
			c-0.158,0.216-0.476,0.408-0.476,0.703c0,0,0,1.881,0,2.084c0,0.204,0.169,0.464,0.612,0.464c0.442,0,1.699,0,1.971,0
			c0.271,0,0.487-0.045,0.759-0.656c0.271-0.611,0.396-0.883,0.396-1.382c0-0.499,0-0.577,0-0.838
			C172.585,144.325,172.359,144.053,171.872,144.053z"/>
	</g>
</g>
<g>
	<g opacity="0.86">
		<rect x="435.186" y="261.592" fill="#D3D3D3" width="12.5" height="9.375"/>
		<rect x="410.186" y="261.592" fill="#D3D3D3" width="12.5" height="9.375"/>
		<rect x="385.186" y="261.592" fill="#D3D3D3" width="12.5" height="9.374"/>
		<rect x="360.186" y="261.591" fill="#D3D3D3" width="12.5" height="9.375"/>
		<rect x="335.186" y="261.591" fill="#D3D3D3" width="12.5" height="9.375"/>
		<rect x="310.186" y="261.591" fill="#D3D3D3" width="12.5" height="9.375"/>
		<rect x="285.186" y="261.591" fill="#D3D3D3" width="12.5" height="9.375"/>
		<rect x="260.186" y="261.591" fill="#D3D3D3" width="12.5" height="9.375"/>
		<rect x="235.186" y="261.591" fill="#D3D3D3" width="12.5" height="9.375"/>
		<rect x="210.186" y="261.591" fill="#D3D3D3" width="12.5" height="9.375"/>
		<rect x="222.686" y="270.966" fill="#D3D3D3" width="12.5" height="12.5"/>
		<rect x="247.686" y="270.966" fill="#D3D3D3" width="12.5" height="12.5"/>
		<rect x="272.686" y="270.966" fill="#D3D3D3" width="12.5" height="12.5"/>
		<rect x="297.686" y="270.966" fill="#D3D3D3" width="12.5" height="12.5"/>
		<rect x="322.686" y="270.966" fill="#D3D3D3" width="12.5" height="12.5"/>
		<rect x="347.686" y="270.966" fill="#D3D3D3" width="12.5" height="12.5"/>
		<rect x="372.686" y="270.966" fill="#D3D3D3" width="12.5" height="12.5"/>
		<rect x="397.686" y="270.966" fill="#D3D3D3" width="12.5" height="12.5"/>
		<rect x="422.686" y="270.966" fill="#D3D3D3" width="12.5" height="12.5"/>
		<rect x="447.686" y="270.966" fill="#D3D3D3" width="12.5" height="12.5"/>
		<rect x="185.186" y="261.591" fill="#D3D3D3" width="12.5" height="9.375"/>
		<rect x="160.186" y="261.591" fill="#D3D3D3" width="12.5" height="9.375"/>
		<rect x="135.186" y="261.591" fill="#D3D3D3" width="12.5" height="9.375"/>
		<rect x="110.186" y="261.591" fill="#D3D3D3" width="12.5" height="9.375"/>
		<rect x="85.186" y="261.591" fill="#D3D3D3" width="12.5" height="9.375"/>
		<rect x="82.186" y="270.966" fill="#D3D3D3" width="3" height="12.5"/>
		<rect x="97.686" y="270.966" fill="#D3D3D3" width="12.5" height="12.5"/>
		<rect x="122.686" y="270.966" fill="#D3D3D3" width="12.5" height="12.5"/>
		<rect x="147.686" y="270.966" fill="#D3D3D3" width="12.5" height="12.5"/>
		<rect x="172.686" y="270.966" fill="#D3D3D3" width="12.5" height="12.5"/>
		<rect x="197.686" y="270.966" fill="#D3D3D3" width="12.5" height="12.5"/>
		<rect x="435.186" y="283.466" fill="#D3D3D3" width="12.5" height="12.5"/>
		<rect x="410.186" y="283.466" fill="#D3D3D3" width="12.5" height="12.5"/>
		<rect x="385.186" y="283.466" fill="#D3D3D3" width="12.5" height="12.5"/>
		<rect x="360.186" y="283.466" fill="#D3D3D3" width="12.5" height="12.5"/>
		<rect x="335.186" y="283.466" fill="#D3D3D3" width="12.5" height="12.5"/>
		<rect x="310.186" y="283.466" fill="#D3D3D3" width="12.5" height="12.5"/>
		<rect x="285.186" y="283.466" fill="#D3D3D3" width="12.5" height="12.5"/>
		<rect x="260.186" y="283.466" fill="#D3D3D3" width="12.5" height="12.5"/>
		<rect x="235.186" y="283.466" fill="#D3D3D3" width="12.5" height="12.5"/>
		<rect x="210.186" y="283.466" fill="#D3D3D3" width="12.5" height="12.5"/>
		<rect x="222.686" y="295.966" fill="#D3D3D3" width="12.5" height="12.5"/>
		<rect x="247.686" y="295.966" fill="#D3D3D3" width="12.5" height="12.5"/>
		<rect x="272.686" y="295.966" fill="#D3D3D3" width="12.5" height="12.5"/>
		<rect x="297.686" y="295.966" fill="#D3D3D3" width="12.5" height="12.5"/>
		<rect x="322.686" y="295.966" fill="#D3D3D3" width="12.5" height="12.5"/>
		<rect x="347.686" y="295.966" fill="#D3D3D3" width="12.5" height="12.5"/>
		<rect x="372.686" y="295.966" fill="#D3D3D3" width="12.5" height="12.5"/>
		<rect x="397.686" y="295.966" fill="#D3D3D3" width="12.5" height="12.5"/>
		<rect x="422.686" y="295.966" fill="#D3D3D3" width="12.5" height="12.5"/>
		<rect x="447.686" y="295.966" fill="#D3D3D3" width="12.5" height="12.5"/>
		<rect x="185.186" y="283.466" fill="#D3D3D3" width="12.5" height="12.5"/>
		<rect x="160.186" y="283.466" fill="#D3D3D3" width="12.5" height="12.5"/>
		<rect x="135.186" y="283.466" fill="#D3D3D3" width="12.5" height="12.5"/>
		<rect x="110.186" y="283.466" fill="#D3D3D3" width="12.5" height="12.5"/>
		<rect x="85.186" y="283.466" fill="#D3D3D3" width="12.5" height="12.5"/>
		<rect x="82.186" y="295.966" fill="#D3D3D3" width="3" height="12.5"/>
		<rect x="97.686" y="295.966" fill="#D3D3D3" width="12.5" height="12.5"/>
		<rect x="122.686" y="295.966" fill="#D3D3D3" width="12.5" height="12.5"/>
		<rect x="147.686" y="295.966" fill="#D3D3D3" width="12.5" height="12.5"/>
		<rect x="172.686" y="295.966" fill="#D3D3D3" width="12.5" height="12.5"/>
		<rect x="197.686" y="295.966" fill="#D3D3D3" width="12.5" height="12.5"/>
		<rect x="435.186" y="308.466" fill="#D3D3D3" width="12.5" height="12.5"/>
		<rect x="410.186" y="308.466" fill="#D3D3D3" width="12.5" height="12.5"/>
		<rect x="385.186" y="308.466" fill="#D3D3D3" width="12.5" height="12.5"/>
		<rect x="360.186" y="308.466" fill="#D3D3D3" width="12.5" height="12.5"/>
		<rect x="335.186" y="308.466" fill="#D3D3D3" width="12.5" height="12.5"/>
		<rect x="310.186" y="308.466" fill="#D3D3D3" width="12.5" height="12.5"/>
		<rect x="285.186" y="308.466" fill="#D3D3D3" width="12.5" height="12.5"/>
		<rect x="260.186" y="308.466" fill="#D3D3D3" width="12.5" height="12.5"/>
		<rect x="235.186" y="308.466" fill="#D3D3D3" width="12.5" height="12.5"/>
		<rect x="210.186" y="308.466" fill="#D3D3D3" width="12.5" height="12.5"/>
		<rect x="222.686" y="320.966" fill="#D3D3D3" width="12.5" height="12.5"/>
		<rect x="247.686" y="320.966" fill="#D3D3D3" width="12.5" height="12.5"/>
		<rect x="272.686" y="320.966" fill="#D3D3D3" width="12.5" height="12.5"/>
		<rect x="297.686" y="320.966" fill="#D3D3D3" width="12.5" height="12.5"/>
		<rect x="322.686" y="320.966" fill="#D3D3D3" width="12.5" height="12.5"/>
		<rect x="347.686" y="320.966" fill="#D3D3D3" width="12.5" height="12.5"/>
		<rect x="372.686" y="320.966" fill="#D3D3D3" width="12.5" height="12.5"/>
		<rect x="397.686" y="320.966" fill="#D3D3D3" width="12.5" height="12.5"/>
		<rect x="422.686" y="320.966" fill="#D3D3D3" width="12.5" height="12.5"/>
		<rect x="447.686" y="320.966" fill="#D3D3D3" width="12.5" height="12.5"/>
		<rect x="185.186" y="308.466" fill="#D3D3D3" width="12.5" height="12.5"/>
		<rect x="160.186" y="308.466" fill="#D3D3D3" width="12.5" height="12.5"/>
		<rect x="135.186" y="308.466" fill="#D3D3D3" width="12.5" height="12.5"/>
		<rect x="110.186" y="308.466" fill="#D3D3D3" width="12.5" height="12.5"/>
		<rect x="85.186" y="308.466" fill="#D3D3D3" width="12.5" height="12.5"/>
		<rect x="82.186" y="320.966" fill="#D3D3D3" width="3" height="12.5"/>
		<rect x="97.686" y="320.966" fill="#D3D3D3" width="12.5" height="12.5"/>
		<rect x="122.686" y="320.966" fill="#D3D3D3" width="12.5" height="12.5"/>
		<rect x="147.686" y="320.966" fill="#D3D3D3" width="12.5" height="12.5"/>
		<rect x="172.686" y="320.966" fill="#D3D3D3" width="12.5" height="12.5"/>
		<rect x="197.686" y="320.966" fill="#D3D3D3" width="12.5" height="12.5"/>
		<rect x="435.186" y="333.466" fill="#D3D3D3" width="12.5" height="12.5"/>
		<rect x="410.186" y="333.466" fill="#D3D3D3" width="12.5" height="12.5"/>
		<rect x="385.186" y="333.466" fill="#D3D3D3" width="12.5" height="12.5"/>
		<rect x="360.186" y="333.466" fill="#D3D3D3" width="12.5" height="12.5"/>
		<rect x="335.186" y="333.466" fill="#D3D3D3" width="12.5" height="12.5"/>
		<rect x="310.186" y="333.466" fill="#D3D3D3" width="12.5" height="12.5"/>
		<rect x="285.186" y="333.466" fill="#D3D3D3" width="12.5" height="12.5"/>
		<rect x="260.186" y="333.466" fill="#D3D3D3" width="12.5" height="12.5"/>
		<rect x="235.186" y="333.466" fill="#D3D3D3" width="12.5" height="12.5"/>
		<rect x="210.186" y="333.466" fill="#D3D3D3" width="12.5" height="12.5"/>
		<rect x="222.686" y="345.966" fill="#D3D3D3" width="12.5" height="12.5"/>
		<rect x="247.686" y="345.966" fill="#D3D3D3" width="12.5" height="12.5"/>
		<rect x="272.686" y="345.966" fill="#D3D3D3" width="12.5" height="12.5"/>
		<rect x="297.686" y="345.966" fill="#D3D3D3" width="12.5" height="12.5"/>
		<rect x="322.686" y="345.966" fill="#D3D3D3" width="12.5" height="12.5"/>
		<rect x="347.686" y="345.966" fill="#D3D3D3" width="12.5" height="12.5"/>
		<rect x="372.686" y="345.966" fill="#D3D3D3" width="12.5" height="12.5"/>
		<rect x="397.686" y="345.966" fill="#D3D3D3" width="12.5" height="12.5"/>
		<rect x="422.686" y="345.966" fill="#D3D3D3" width="12.5" height="12.5"/>
		<rect x="447.686" y="345.966" fill="#D3D3D3" width="12.5" height="12.5"/>
		<rect x="185.186" y="333.466" fill="#D3D3D3" width="12.5" height="12.5"/>
		<rect x="160.186" y="333.466" fill="#D3D3D3" width="12.5" height="12.5"/>
		<rect x="135.186" y="333.466" fill="#D3D3D3" width="12.5" height="12.5"/>
		<rect x="110.186" y="333.466" fill="#D3D3D3" width="12.5" height="12.5"/>
		<rect x="85.186" y="333.466" fill="#D3D3D3" width="12.5" height="12.5"/>
		<rect x="82.186" y="345.966" fill="#D3D3D3" width="3" height="12.5"/>
		<rect x="97.686" y="345.966" fill="#D3D3D3" width="12.5" height="12.5"/>
		<rect x="122.686" y="345.966" fill="#D3D3D3" width="12.5" height="12.5"/>
		<rect x="147.686" y="345.966" fill="#D3D3D3" width="12.5" height="12.5"/>
		<rect x="172.686" y="345.966" fill="#D3D3D3" width="12.5" height="12.5"/>
		<rect x="197.686" y="345.966" fill="#D3D3D3" width="12.5" height="12.5"/>
		<rect x="435.186" y="358.466" fill="#D3D3D3" width="12.5" height="12.5"/>
		<rect x="410.186" y="358.466" fill="#D3D3D3" width="12.5" height="12.5"/>
		<rect x="385.186" y="358.466" fill="#D3D3D3" width="12.5" height="12.5"/>
		<rect x="360.186" y="358.466" fill="#D3D3D3" width="12.5" height="12.5"/>
		<rect x="335.186" y="358.466" fill="#D3D3D3" width="12.5" height="12.5"/>
		<rect x="310.186" y="358.466" fill="#D3D3D3" width="12.5" height="12.5"/>
		<rect x="285.186" y="358.466" fill="#D3D3D3" width="12.5" height="12.5"/>
		<rect x="260.186" y="358.466" fill="#D3D3D3" width="12.5" height="12.5"/>
		<rect x="235.186" y="358.466" fill="#D3D3D3" width="12.5" height="12.5"/>
		<rect x="210.186" y="358.466" fill="#D3D3D3" width="12.5" height="12.5"/>
		<rect x="222.686" y="370.966" fill="#D3D3D3" width="12.5" height="12.5"/>
		<rect x="247.686" y="370.966" fill="#D3D3D3" width="12.5" height="12.5"/>
		<rect x="272.686" y="370.966" fill="#D3D3D3" width="12.5" height="12.5"/>
		<rect x="297.686" y="370.966" fill="#D3D3D3" width="12.5" height="12.5"/>
		<rect x="322.686" y="370.966" fill="#D3D3D3" width="12.5" height="12.5"/>
		<rect x="347.686" y="370.966" fill="#D3D3D3" width="12.5" height="12.5"/>
		<rect x="372.686" y="370.966" fill="#D3D3D3" width="12.5" height="12.5"/>
		<rect x="397.686" y="370.966" fill="#D3D3D3" width="12.5" height="12.5"/>
		<rect x="422.686" y="370.966" fill="#D3D3D3" width="12.5" height="12.5"/>
		<rect x="447.686" y="370.966" fill="#D3D3D3" width="12.5" height="12.5"/>
		<rect x="185.186" y="358.466" fill="#D3D3D3" width="12.5" height="12.5"/>
		<rect x="160.186" y="358.466" fill="#D3D3D3" width="12.5" height="12.5"/>
		<rect x="135.186" y="358.466" fill="#D3D3D3" width="12.5" height="12.5"/>
		<rect x="110.186" y="358.466" fill="#D3D3D3" width="12.5" height="12.5"/>
		<rect x="85.186" y="358.466" fill="#D3D3D3" width="12.5" height="12.5"/>
		<rect x="82.186" y="370.966" fill="#D3D3D3" width="3" height="12.5"/>
		<rect x="97.686" y="370.966" fill="#D3D3D3" width="12.5" height="12.5"/>
		<rect x="122.686" y="370.966" fill="#D3D3D3" width="12.5" height="12.5"/>
		<rect x="147.686" y="370.966" fill="#D3D3D3" width="12.5" height="12.5"/>
		<rect x="172.686" y="370.966" fill="#D3D3D3" width="12.5" height="12.5"/>
		<rect x="197.686" y="370.966" fill="#D3D3D3" width="12.5" height="12.5"/>
		<rect x="435.186" y="383.466" fill="#D3D3D3" width="12.5" height="12.501"/>
		<rect x="410.186" y="383.466" fill="#D3D3D3" width="12.5" height="12.501"/>
		<rect x="385.186" y="383.466" fill="#D3D3D3" width="12.5" height="12.501"/>
		<rect x="360.186" y="383.466" fill="#D3D3D3" width="12.5" height="12.501"/>
		<rect x="335.186" y="383.466" fill="#D3D3D3" width="12.5" height="12.501"/>
		<rect x="310.186" y="383.466" fill="#D3D3D3" width="12.5" height="12.501"/>
		<rect x="285.186" y="383.466" fill="#D3D3D3" width="12.5" height="12.501"/>
		<rect x="260.186" y="383.466" fill="#D3D3D3" width="12.5" height="12.501"/>
		<rect x="235.186" y="383.466" fill="#D3D3D3" width="12.5" height="12.501"/>
		<rect x="210.186" y="383.466" fill="#D3D3D3" width="12.5" height="12.501"/>
		<rect x="222.686" y="395.967" fill="#D3D3D3" width="12.5" height="12.5"/>
		<rect x="247.686" y="395.967" fill="#D3D3D3" width="12.5" height="12.5"/>
		<rect x="272.686" y="395.967" fill="#D3D3D3" width="12.5" height="12.5"/>
		<rect x="297.686" y="395.967" fill="#D3D3D3" width="12.5" height="12.5"/>
		<rect x="322.686" y="395.967" fill="#D3D3D3" width="12.5" height="12.5"/>
		<rect x="347.686" y="395.967" fill="#D3D3D3" width="12.5" height="12.5"/>
		<rect x="372.686" y="395.967" fill="#D3D3D3" width="12.5" height="12.5"/>
		<rect x="397.686" y="395.967" fill="#D3D3D3" width="12.5" height="12.5"/>
		<rect x="422.686" y="395.967" fill="#D3D3D3" width="12.5" height="12.5"/>
		<rect x="447.686" y="395.967" fill="#D3D3D3" width="12.5" height="12.5"/>
		<rect x="185.186" y="383.466" fill="#D3D3D3" width="12.5" height="12.501"/>
		<rect x="160.186" y="383.466" fill="#D3D3D3" width="12.5" height="12.501"/>
		<rect x="135.186" y="383.466" fill="#D3D3D3" width="12.5" height="12.501"/>
		<rect x="110.186" y="383.466" fill="#D3D3D3" width="12.5" height="12.501"/>
		<rect x="85.186" y="383.466" fill="#D3D3D3" width="12.5" height="12.501"/>
		<rect x="82.186" y="395.967" fill="#D3D3D3" width="3" height="12.5"/>
		<rect x="97.686" y="395.967" fill="#D3D3D3" width="12.5" height="12.5"/>
		<rect x="122.686" y="395.967" fill="#D3D3D3" width="12.5" height="12.5"/>
		<rect x="147.686" y="395.967" fill="#D3D3D3" width="12.5" height="12.5"/>
		<rect x="172.686" y="395.967" fill="#D3D3D3" width="12.5" height="12.5"/>
		<rect x="197.686" y="395.967" fill="#D3D3D3" width="12.5" height="12.5"/>
		<rect x="435.186" y="408.466" fill="#D3D3D3" width="12.5" height="4.614"/>
		<rect x="410.186" y="408.466" fill="#D3D3D3" width="12.5" height="4.614"/>
		<rect x="385.186" y="408.466" fill="#D3D3D3" width="12.5" height="4.614"/>
		<rect x="360.186" y="408.466" fill="#D3D3D3" width="12.5" height="4.614"/>
		<rect x="335.186" y="408.466" fill="#D3D3D3" width="12.5" height="4.614"/>
		<rect x="310.186" y="408.466" fill="#D3D3D3" width="12.5" height="4.614"/>
		<rect x="285.186" y="408.466" fill="#D3D3D3" width="12.5" height="4.614"/>
		<rect x="260.186" y="408.466" fill="#D3D3D3" width="12.5" height="4.614"/>
		<rect x="235.186" y="408.466" fill="#D3D3D3" width="12.5" height="4.614"/>
		<rect x="210.186" y="408.466" fill="#D3D3D3" width="12.5" height="4.614"/>
		<rect x="185.186" y="408.466" fill="#D3D3D3" width="12.5" height="4.614"/>
		<rect x="160.186" y="408.466" fill="#D3D3D3" width="12.5" height="4.614"/>
		<rect x="135.186" y="408.466" fill="#D3D3D3" width="12.5" height="4.614"/>
		<rect x="110.186" y="408.466" fill="#D3D3D3" width="12.5" height="4.614"/>
		<rect x="85.186" y="408.466" fill="#D3D3D3" width="12.5" height="4.614"/>
	</g>
	<g>
		<rect x="447.686" y="261.592" fill="#EDEDED" width="12.5" height="9.375"/>
		<rect x="422.686" y="261.592" fill="#EDEDED" width="12.5" height="9.375"/>
		<rect x="397.686" y="261.592" fill="#EDEDED" width="12.5" height="9.375"/>
		<rect x="372.686" y="261.591" fill="#EDEDED" width="12.5" height="9.375"/>
		<rect x="347.686" y="261.591" fill="#EDEDED" width="12.5" height="9.375"/>
		<rect x="322.686" y="261.591" fill="#EDEDED" width="12.5" height="9.375"/>
		<rect x="297.686" y="261.591" fill="#EDEDED" width="12.5" height="9.375"/>
		<rect x="272.686" y="261.591" fill="#EDEDED" width="12.5" height="9.375"/>
		<rect x="247.686" y="261.591" fill="#EDEDED" width="12.5" height="9.375"/>
		<rect x="222.686" y="261.591" fill="#EDEDED" width="12.5" height="9.375"/>
		<rect x="210.186" y="270.966" fill="#EDEDED" width="12.5" height="12.5"/>
		<rect x="235.186" y="270.966" fill="#EDEDED" width="12.5" height="12.5"/>
		<rect x="260.186" y="270.966" fill="#EDEDED" width="12.5" height="12.5"/>
		<rect x="285.186" y="270.966" fill="#EDEDED" width="12.5" height="12.5"/>
		<rect x="310.186" y="270.966" fill="#EDEDED" width="12.5" height="12.5"/>
		<rect x="335.186" y="270.966" fill="#EDEDED" width="12.5" height="12.5"/>
		<rect x="360.186" y="270.966" fill="#EDEDED" width="12.5" height="12.5"/>
		<rect x="385.186" y="270.966" fill="#EDEDED" width="12.5" height="12.5"/>
		<rect x="410.186" y="270.966" fill="#EDEDED" width="12.5" height="12.5"/>
		<rect x="435.186" y="270.966" fill="#EDEDED" width="12.5" height="12.5"/>
		<rect x="197.686" y="261.591" fill="#EDEDED" width="12.5" height="9.375"/>
		<rect x="172.686" y="261.591" fill="#EDEDED" width="12.5" height="9.375"/>
		<rect x="147.686" y="261.591" fill="#EDEDED" width="12.5" height="9.375"/>
		<rect x="122.686" y="261.591" fill="#EDEDED" width="12.5" height="9.375"/>
		<rect x="97.686" y="261.591" fill="#EDEDED" width="12.5" height="9.375"/>
		<rect x="82.186" y="261.591" fill="#EDEDED" width="3" height="9.375"/>
		<rect x="85.186" y="270.966" fill="#EDEDED" width="12.5" height="12.5"/>
		<rect x="110.186" y="270.966" fill="#EDEDED" width="12.5" height="12.5"/>
		<rect x="135.186" y="270.966" fill="#EDEDED" width="12.5" height="12.5"/>
		<rect x="160.186" y="270.966" fill="#EDEDED" width="12.5" height="12.5"/>
		<rect x="185.186" y="270.966" fill="#EDEDED" width="12.5" height="12.5"/>
		<rect x="447.686" y="283.466" fill="#EDEDED" width="12.5" height="12.5"/>
		<rect x="422.686" y="283.466" fill="#EDEDED" width="12.5" height="12.5"/>
		<rect x="397.686" y="283.466" fill="#EDEDED" width="12.5" height="12.5"/>
		<rect x="372.686" y="283.466" fill="#EDEDED" width="12.5" height="12.5"/>
		<rect x="347.686" y="283.466" fill="#EDEDED" width="12.5" height="12.5"/>
		<rect x="322.686" y="283.466" fill="#EDEDED" width="12.5" height="12.5"/>
		<rect x="297.686" y="283.466" fill="#EDEDED" width="12.5" height="12.5"/>
		<rect x="272.686" y="283.466" fill="#EDEDED" width="12.5" height="12.5"/>
		<rect x="247.686" y="283.466" fill="#EDEDED" width="12.5" height="12.5"/>
		<rect x="222.686" y="283.466" fill="#EDEDED" width="12.5" height="12.5"/>
		<rect x="210.186" y="295.966" fill="#EDEDED" width="12.5" height="12.5"/>
		<rect x="235.186" y="295.966" fill="#EDEDED" width="12.5" height="12.5"/>
		<rect x="260.186" y="295.966" fill="#EDEDED" width="12.5" height="12.5"/>
		<rect x="310.186" y="295.966" fill="#EDEDED" width="12.5" height="12.5"/>
		<rect x="335.186" y="295.966" fill="#EDEDED" width="12.5" height="12.5"/>
		<rect x="360.186" y="295.966" fill="#EDEDED" width="12.5" height="12.5"/>
		<rect x="385.186" y="295.966" fill="#EDEDED" width="12.5" height="12.5"/>
		<rect x="410.186" y="295.966" fill="#EDEDED" width="12.5" height="12.5"/>
		<rect x="435.186" y="295.966" fill="#EDEDED" width="12.5" height="12.5"/>
		<rect x="197.686" y="283.466" fill="#EDEDED" width="12.5" height="12.5"/>
		<rect x="172.686" y="283.466" fill="#EDEDED" width="12.5" height="12.5"/>
		<rect x="147.686" y="283.466" fill="#EDEDED" width="12.5" height="12.5"/>
		<rect x="122.686" y="283.466" fill="#EDEDED" width="12.5" height="12.5"/>
		<rect x="97.686" y="283.466" fill="#EDEDED" width="12.5" height="12.5"/>
		<rect x="82.186" y="283.466" fill="#EDEDED" width="3" height="12.5"/>
		<rect x="85.186" y="295.966" fill="#EDEDED" width="12.5" height="12.5"/>
		<rect x="110.186" y="295.966" fill="#EDEDED" width="12.5" height="12.5"/>
		<rect x="135.186" y="295.966" fill="#EDEDED" width="12.5" height="12.5"/>
		<rect x="160.186" y="295.966" fill="#EDEDED" width="12.5" height="12.5"/>
		<rect x="185.186" y="295.966" fill="#EDEDED" width="12.5" height="12.5"/>
		<rect x="447.686" y="308.466" fill="#EDEDED" width="12.5" height="12.5"/>
		<rect x="422.686" y="308.466" fill="#EDEDED" width="12.5" height="12.5"/>
		<rect x="397.686" y="308.466" fill="#EDEDED" width="12.5" height="12.5"/>
		<rect x="372.686" y="308.466" fill="#EDEDED" width="12.5" height="12.5"/>
		<rect x="347.686" y="308.466" fill="#EDEDED" width="12.5" height="12.5"/>
		<rect x="322.686" y="308.466" fill="#EDEDED" width="12.5" height="12.5"/>
		<rect x="297.686" y="308.466" fill="#EDEDED" width="12.5" height="12.5"/>
		<rect x="272.686" y="308.466" fill="#EDEDED" width="12.5" height="12.5"/>
		<rect x="247.686" y="308.466" fill="#EDEDED" width="12.5" height="12.5"/>
		<rect x="222.686" y="308.466" fill="#EDEDED" width="12.5" height="12.5"/>
		<rect x="210.186" y="320.966" fill="#EDEDED" width="12.5" height="12.5"/>
		<rect x="235.186" y="320.966" fill="#EDEDED" width="12.5" height="12.5"/>
		<rect x="260.186" y="320.966" fill="#EDEDED" width="12.5" height="12.5"/>
		<rect x="285.186" y="320.966" fill="#EDEDED" width="12.5" height="12.5"/>
		<rect x="310.186" y="320.966" fill="#EDEDED" width="12.5" height="12.5"/>
		<rect x="335.186" y="320.966" fill="#EDEDED" width="12.5" height="12.5"/>
		<rect x="360.186" y="320.966" fill="#EDEDED" width="12.5" height="12.5"/>
		<rect x="385.186" y="320.966" fill="#EDEDED" width="12.5" height="12.5"/>
		<rect x="410.186" y="320.966" fill="#EDEDED" width="12.5" height="12.5"/>
		<rect x="435.186" y="320.966" fill="#EDEDED" width="12.5" height="12.5"/>
		<rect x="197.686" y="308.466" fill="#EDEDED" width="12.5" height="12.5"/>
		<rect x="172.686" y="308.466" fill="#EDEDED" width="12.5" height="12.5"/>
		<rect x="147.686" y="308.466" fill="#EDEDED" width="12.5" height="12.5"/>
		<rect x="122.686" y="308.466" fill="#EDEDED" width="12.5" height="12.5"/>
		<rect x="97.686" y="308.466" fill="#EDEDED" width="12.5" height="12.5"/>
		<rect x="82.186" y="308.466" fill="#EDEDED" width="3" height="12.5"/>
		<rect x="85.186" y="320.966" fill="#EDEDED" width="12.5" height="12.5"/>
		<rect x="110.186" y="320.966" fill="#EDEDED" width="12.5" height="12.5"/>
		<rect x="135.186" y="320.966" fill="#EDEDED" width="12.5" height="12.5"/>
		<rect x="160.186" y="320.966" fill="#EDEDED" width="12.5" height="12.5"/>
		<rect x="185.186" y="320.966" fill="#EDEDED" width="12.5" height="12.5"/>
		<rect x="447.686" y="333.466" fill="#EDEDED" width="12.5" height="12.5"/>
		<rect x="422.686" y="333.466" fill="#EDEDED" width="12.5" height="12.5"/>
		<rect x="397.686" y="333.466" fill="#EDEDED" width="12.5" height="12.5"/>
		<rect x="372.686" y="333.466" fill="#EDEDED" width="12.5" height="12.5"/>
		<rect x="347.686" y="333.466" fill="#EDEDED" width="12.5" height="12.5"/>
		<rect x="322.686" y="333.466" fill="#EDEDED" width="12.5" height="12.5"/>
		<rect x="297.686" y="333.466" fill="#EDEDED" width="12.5" height="12.5"/>
		<rect x="272.686" y="333.466" fill="#EDEDED" width="12.5" height="12.5"/>
		<rect x="247.686" y="333.466" fill="#EDEDED" width="12.5" height="12.5"/>
		<rect x="222.686" y="333.466" fill="#EDEDED" width="12.5" height="12.5"/>
		<rect x="210.186" y="345.966" fill="#EDEDED" width="12.5" height="12.5"/>
		<rect x="235.186" y="345.966" fill="#EDEDED" width="12.5" height="12.5"/>
		<rect x="260.186" y="345.966" fill="#EDEDED" width="12.5" height="12.5"/>
		<rect x="285.186" y="345.966" fill="#EDEDED" width="12.5" height="12.5"/>
		<rect x="310.186" y="345.966" fill="#EDEDED" width="12.5" height="12.5"/>
		<rect x="335.186" y="345.966" fill="#EDEDED" width="12.5" height="12.5"/>
		<rect x="360.186" y="345.966" fill="#EDEDED" width="12.5" height="12.5"/>
		<rect x="385.186" y="345.966" fill="#EDEDED" width="12.5" height="12.5"/>
		<rect x="410.186" y="345.966" fill="#EDEDED" width="12.5" height="12.5"/>
		<rect x="435.186" y="345.966" fill="#EDEDED" width="12.5" height="12.5"/>
		<rect x="197.686" y="333.466" fill="#EDEDED" width="12.5" height="12.5"/>
		<rect x="172.686" y="333.466" fill="#EDEDED" width="12.5" height="12.5"/>
		<rect x="147.686" y="333.466" fill="#EDEDED" width="12.5" height="12.5"/>
		<rect x="122.686" y="333.466" fill="#EDEDED" width="12.5" height="12.5"/>
		<rect x="97.686" y="333.466" fill="#EDEDED" width="12.5" height="12.5"/>
		<rect x="82.186" y="333.466" fill="#EDEDED" width="3" height="12.5"/>
		<rect x="85.186" y="345.966" fill="#EDEDED" width="12.5" height="12.5"/>
		<rect x="110.186" y="345.966" fill="#EDEDED" width="12.5" height="12.5"/>
		<rect x="135.186" y="345.966" fill="#EDEDED" width="12.5" height="12.5"/>
		<rect x="160.186" y="345.966" fill="#EDEDED" width="12.5" height="12.5"/>
		<rect x="185.186" y="345.966" fill="#EDEDED" width="12.5" height="12.5"/>
		<rect x="447.686" y="358.466" fill="#EDEDED" width="12.5" height="12.5"/>
		<rect x="422.686" y="358.466" fill="#EDEDED" width="12.5" height="12.5"/>
		<rect x="397.686" y="358.466" fill="#EDEDED" width="12.5" height="12.5"/>
		<rect x="372.686" y="358.466" fill="#EDEDED" width="12.5" height="12.5"/>
		<rect x="347.686" y="358.466" fill="#EDEDED" width="12.5" height="12.5"/>
		<rect x="322.686" y="358.466" fill="#EDEDED" width="12.5" height="12.5"/>
		<rect x="297.686" y="358.466" fill="#EDEDED" width="12.5" height="12.5"/>
		<rect x="272.686" y="358.466" fill="#EDEDED" width="12.5" height="12.5"/>
		<rect x="247.686" y="358.466" fill="#EDEDED" width="12.5" height="12.5"/>
		<rect x="222.686" y="358.466" fill="#EDEDED" width="12.5" height="12.5"/>
		<rect x="210.186" y="370.966" fill="#EDEDED" width="12.5" height="12.5"/>
		<rect x="235.186" y="370.966" fill="#EDEDED" width="12.5" height="12.5"/>
		<rect x="260.186" y="370.966" fill="#EDEDED" width="12.5" height="12.5"/>
		<rect x="285.186" y="370.966" fill="#EDEDED" width="12.5" height="12.5"/>
		<rect x="310.186" y="370.966" fill="#EDEDED" width="12.5" height="12.5"/>
		<rect x="335.186" y="370.966" fill="#EDEDED" width="12.5" height="12.5"/>
		<rect x="360.186" y="370.966" fill="#EDEDED" width="12.5" height="12.5"/>
		<rect x="385.186" y="370.966" fill="#EDEDED" width="12.5" height="12.5"/>
		<rect x="410.186" y="370.966" fill="#EDEDED" width="12.5" height="12.5"/>
		<rect x="435.186" y="370.966" fill="#EDEDED" width="12.5" height="12.5"/>
		<rect x="197.686" y="358.466" fill="#EDEDED" width="12.5" height="12.5"/>
		<rect x="172.686" y="358.466" fill="#EDEDED" width="12.5" height="12.5"/>
		<rect x="147.686" y="358.466" fill="#EDEDED" width="12.5" height="12.5"/>
		<rect x="122.686" y="358.466" fill="#EDEDED" width="12.5" height="12.5"/>
		<rect x="97.686" y="358.466" fill="#EDEDED" width="12.5" height="12.5"/>
		<rect x="82.186" y="358.466" fill="#EDEDED" width="3" height="12.5"/>
		<rect x="85.186" y="370.966" fill="#EDEDED" width="12.5" height="12.5"/>
		<rect x="110.186" y="370.966" fill="#EDEDED" width="12.5" height="12.5"/>
		<rect x="135.186" y="370.966" fill="#EDEDED" width="12.5" height="12.5"/>
		<rect x="160.186" y="370.966" fill="#EDEDED" width="12.5" height="12.5"/>
		<rect x="185.186" y="370.966" fill="#EDEDED" width="12.5" height="12.5"/>
		<rect x="447.686" y="383.466" fill="#EDEDED" width="12.5" height="12.501"/>
		<rect x="422.686" y="383.466" fill="#EDEDED" width="12.5" height="12.501"/>
		<rect x="397.686" y="383.466" fill="#EDEDED" width="12.5" height="12.501"/>
		<rect x="372.686" y="383.466" fill="#EDEDED" width="12.5" height="12.501"/>
		<rect x="347.686" y="383.466" fill="#EDEDED" width="12.5" height="12.501"/>
		<rect x="322.686" y="383.466" fill="#EDEDED" width="12.5" height="12.501"/>
		<rect x="297.686" y="383.466" fill="#EDEDED" width="12.5" height="12.501"/>
		<rect x="272.686" y="383.466" fill="#EDEDED" width="12.5" height="12.501"/>
		<rect x="247.686" y="383.466" fill="#EDEDED" width="12.5" height="12.501"/>
		<rect x="222.686" y="383.466" fill="#EDEDED" width="12.5" height="12.501"/>
		<rect x="210.186" y="395.967" fill="#EDEDED" width="12.5" height="12.5"/>
		<rect x="235.186" y="395.967" fill="#EDEDED" width="12.5" height="12.5"/>
		<rect x="260.186" y="395.967" fill="#EDEDED" width="12.5" height="12.5"/>
		<rect x="285.186" y="395.967" fill="#EDEDED" width="12.5" height="12.5"/>
		<rect x="310.186" y="395.967" fill="#EDEDED" width="12.5" height="12.5"/>
		<rect x="335.186" y="395.967" fill="#EDEDED" width="12.5" height="12.5"/>
		<rect x="360.186" y="395.967" fill="#EDEDED" width="12.5" height="12.5"/>
		<rect x="385.186" y="395.967" fill="#EDEDED" width="12.5" height="12.5"/>
		<rect x="410.186" y="395.967" fill="#EDEDED" width="12.5" height="12.5"/>
		<rect x="435.186" y="395.967" fill="#EDEDED" width="12.5" height="12.5"/>
		<rect x="197.686" y="383.466" fill="#EDEDED" width="12.5" height="12.501"/>
		<rect x="172.686" y="383.466" fill="#EDEDED" width="12.5" height="12.501"/>
		<rect x="147.686" y="383.466" fill="#EDEDED" width="12.5" height="12.501"/>
		<rect x="122.686" y="383.466" fill="#EDEDED" width="12.5" height="12.501"/>
		<rect x="97.686" y="383.466" fill="#EDEDED" width="12.5" height="12.501"/>
		<rect x="82.186" y="383.466" fill="#EDEDED" width="3" height="12.501"/>
		<rect x="85.186" y="395.967" fill="#EDEDED" width="12.5" height="12.5"/>
		<rect x="110.186" y="395.967" fill="#EDEDED" width="12.5" height="12.5"/>
		<rect x="135.186" y="395.967" fill="#EDEDED" width="12.5" height="12.5"/>
		<rect x="160.186" y="395.967" fill="#EDEDED" width="12.5" height="12.5"/>
		<rect x="185.186" y="395.967" fill="#EDEDED" width="12.5" height="12.5"/>
		<rect x="447.686" y="408.466" fill="#EDEDED" width="12.5" height="4.614"/>
		<rect x="422.686" y="408.466" fill="#EDEDED" width="12.5" height="4.614"/>
		<rect x="397.686" y="408.466" fill="#EDEDED" width="12.5" height="4.614"/>
		<rect x="372.686" y="408.466" fill="#EDEDED" width="12.5" height="4.614"/>
		<rect x="347.686" y="408.466" fill="#EDEDED" width="12.5" height="4.614"/>
		<rect x="322.686" y="408.466" fill="#EDEDED" width="12.5" height="4.614"/>
		<rect x="297.686" y="408.466" fill="#EDEDED" width="12.5" height="4.614"/>
		<rect x="272.686" y="408.466" fill="#EDEDED" width="12.5" height="4.614"/>
		<rect x="247.686" y="408.466" fill="#EDEDED" width="12.5" height="4.614"/>
		<rect x="222.686" y="408.466" fill="#EDEDED" width="12.5" height="4.614"/>
		<rect x="197.686" y="408.466" fill="#EDEDED" width="12.5" height="4.614"/>
		<rect x="172.686" y="408.466" fill="#EDEDED" width="12.5" height="4.614"/>
		<rect x="147.686" y="408.466" fill="#EDEDED" width="12.5" height="4.614"/>
		<rect x="122.686" y="408.466" fill="#EDEDED" width="12.5" height="4.614"/>
		<rect x="97.686" y="408.466" fill="#EDEDED" width="12.5" height="4.614"/>
		<rect x="82.186" y="408.466" fill="#EDEDED" width="3" height="4.614"/>
		<rect x="285.186" y="295.966" fill="#EDEDED" width="12.5" height="12.5"/>
	</g>
	<rect x="82.186" y="261.592" opacity="0.25" fill="#B1BACC" width="378.685" height="151.488"/>
</g>
<g>
	<circle fill="#616871" cx="444.316" cy="398.454" r="9.764"/>
	<g>
		<path fill="#FFFFFF" d="M444.316,396.822c-1.265,0-2.287,1.022-2.287,2.287c0,1.268,1.022,2.29,2.287,2.29s2.29-1.022,2.29-2.29
			C446.606,397.845,445.581,396.822,444.316,396.822z"/>
		<path fill="#FFFFFF" d="M448.533,394.561h-1.095l-0.76-1.026c-0.147-0.194-0.505-0.335-0.818-0.335h-3.081
			c-0.317,0-0.681,0.141-0.832,0.335l-0.756,1.026h-1.089c-0.856,0-1.546,0.693-1.546,1.55v6.049c0,0.854,0.689,1.547,1.546,1.547
			h8.431c0.854,0,1.547-0.693,1.547-1.547v-6.049C450.08,395.254,449.387,394.561,448.533,394.561z M444.316,402.284
			c-1.751,0-3.172-1.421-3.172-3.175c0-1.75,1.421-3.172,3.172-3.172c1.754,0,3.175,1.422,3.175,3.172
			C447.491,400.863,446.07,402.284,444.316,402.284z M448.135,397.164c-0.389,0-0.703-0.313-0.703-0.702
			c0-0.39,0.314-0.703,0.703-0.703c0.386,0,0.703,0.313,0.703,0.703C448.838,396.851,448.521,397.164,448.135,397.164z"/>
	</g>
</g>
<rect x="82.186" y="261.591" opacity="0.25" fill="#B1BACC" width="378.685" height="151.489"/>
</svg>
