<?xml version="1.0" standalone="no"?>
<!DOCTYPE svg PUBLIC "-//W3C//DTD SVG 20010904//EN"
 "http://www.w3.org/TR/2001/REC-SVG-20010904/DTD/svg10.dtd">
<svg version="1.0" xmlns="http://www.w3.org/2000/svg"
 width="700.000000pt" height="700.000000pt" viewBox="0 0 700.000000 700.000000"
 preserveAspectRatio="xMidYMid meet">
<metadata>
Created by potrace 1.11, written by Peter Selinger 2001-2013
</metadata>
<g transform="translate(0.000000,700.000000) scale(0.100000,-0.100000)"
fill="#000000" stroke="none">
<path d="M3205 6979 c-44 -4 -98 -11 -120 -14 -22 -3 -60 -8 -85 -11 -38 -5
-123 -20 -230 -40 -186 -36 -505 -142 -700 -231 -150 -69 -392 -199 -398 -215
-2 -4 -8 -8 -13 -8 -13 0 -187 -120 -294 -202 -129 -99 -203 -166 -341 -304
-208 -210 -356 -400 -515 -659 -13 -22 -28 -47 -34 -56 -35 -56 -164 -320
-201 -411 -87 -213 -171 -489 -200 -658 -22 -125 -34 -201 -40 -255 -2 -16 -7
-61 -11 -100 -16 -143 -8 -658 12 -776 8 -50 35 -205 40 -234 59 -316 221
-751 403 -1080 86 -156 303 -441 471 -619 170 -179 302 -299 441 -401 41 -30
80 -58 85 -62 59 -45 291 -190 355 -222 25 -12 65 -34 90 -47 233 -130 711
-289 990 -330 19 -3 60 -9 91 -15 114 -19 212 -24 509 -24 274 0 358 4 468 19
18 3 52 8 75 11 23 3 76 12 117 20 41 9 85 17 97 20 45 8 251 65 338 94 277
89 559 226 825 399 82 54 263 187 291 214 8 8 43 38 79 67 101 82 329 319 439
457 116 145 240 328 334 497 37 65 67 120 67 123 0 2 18 41 39 86 118 249 227
588 270 838 20 116 21 124 27 175 3 28 10 77 14 110 5 33 7 211 6 395 -4 325
-9 402 -45 590 -6 30 -13 69 -16 85 -3 17 -21 91 -41 165 -19 74 -37 142 -39
150 -7 27 -66 194 -79 225 -8 17 -17 41 -21 54 -16 53 -156 340 -213 436 -10
17 -31 53 -47 80 -163 278 -400 557 -713 838 -148 133 -448 334 -664 446 -255
131 -638 272 -828 305 -14 2 -43 8 -65 14 -22 6 -60 13 -85 16 -25 3 -54 8
-65 10 -26 5 -155 24 -220 31 -83 11 -564 13 -650 4z"/>
</g>
</svg>
